<svg width="38" height="48" viewBox="0 0 38 48" fill="none" xmlns="http://www.w3.org/2000/svg">
<path d="M24.4865 19.44C28.4118 20.08 31.4198 21.552 33.5105 23.856C35.6012 26.1173 36.6465 28.9333 36.6465 32.304C36.6465 34.9067 35.9638 37.3173 34.5985 39.536C33.2332 41.712 31.1425 43.4613 28.3265 44.784C25.5532 46.1067 22.1398 46.768 18.0865 46.768C14.9292 46.768 11.8145 46.3627 8.7425 45.552C5.71317 44.6987 3.13183 43.504 0.9985 41.968L5.0305 34.032C6.73717 35.312 8.69983 36.3147 10.9185 37.04C13.1798 37.7227 15.4838 38.064 17.8305 38.064C20.4332 38.064 22.4812 37.5733 23.9745 36.592C25.4678 35.568 26.2145 34.1387 26.2145 32.304C26.2145 28.6347 23.4198 26.8 17.8305 26.8H13.0945V19.952L22.3105 9.52H3.2385V1.2H34.5985V7.92L24.4865 19.44Z" fill="white"/>
<path d="M24.4865 19.44L24.1107 19.1102L23.5155 19.7883L24.406 19.9335L24.4865 19.44ZM33.5105 23.856L33.1402 24.192L33.1434 24.1954L33.5105 23.856ZM34.5985 39.536L35.0221 39.8018L35.0243 39.798L34.5985 39.536ZM28.3265 44.784L28.1139 44.3314L28.1113 44.3327L28.3265 44.784ZM8.7425 45.552L8.60691 46.0333L8.61492 46.0355L8.7425 45.552ZM0.9985 41.968L0.552733 41.7415L0.358688 42.1235L0.706347 42.3738L0.9985 41.968ZM5.0305 34.032L5.3305 33.632L4.85434 33.2749L4.58473 33.8055L5.0305 34.032ZM10.9185 37.04L10.7631 37.5154L10.774 37.5187L10.9185 37.04ZM23.9745 36.592L24.2491 37.0099L24.2573 37.0044L23.9745 36.592ZM13.0945 26.8H12.5945V27.3H13.0945V26.8ZM13.0945 19.952L12.7198 19.621L12.5945 19.7628V19.952H13.0945ZM22.3105 9.52L22.6852 9.85104L23.4194 9.02H22.3105V9.52ZM3.2385 9.52H2.7385V10.02H3.2385V9.52ZM3.2385 1.2V0.699997H2.7385V1.2H3.2385ZM34.5985 1.2H35.0985V0.699997H34.5985V1.2ZM34.5985 7.92L34.9743 8.24984L35.0985 8.10831V7.92H34.5985ZM24.406 19.9335C28.2513 20.5604 31.1446 21.9927 33.1402 24.192L33.8808 23.52C31.6951 21.1113 28.5724 19.5996 24.567 18.9465L24.406 19.9335ZM33.1434 24.1954C35.1402 26.3553 36.1465 29.0462 36.1465 32.304H37.1465C37.1465 28.8204 36.0621 25.8794 33.8776 23.5166L33.1434 24.1954ZM36.1465 32.304C36.1465 34.814 35.4896 37.134 34.1727 39.2739L35.0243 39.798C36.4381 37.5007 37.1465 34.9993 37.1465 32.304H36.1465ZM34.175 39.2703C32.8704 41.3493 30.8616 43.0409 28.1139 44.3314L28.5391 45.2366C31.4234 43.8818 33.5959 42.0747 35.022 39.8017L34.175 39.2703ZM28.1113 44.3327C25.423 45.6148 22.0881 46.268 18.0865 46.268V47.268C22.1916 47.268 25.6833 46.5986 28.5417 45.2353L28.1113 44.3327ZM18.0865 46.268C14.9725 46.268 11.9007 45.8683 8.87008 45.0686L8.61492 46.0355C11.7283 46.857 14.8858 47.268 18.0865 47.268V46.268ZM8.87807 45.0707C5.89415 44.2302 3.36829 43.0581 1.29065 41.5622L0.706347 42.3738C2.89538 43.9499 5.53218 45.1671 8.60693 46.0333L8.87807 45.0707ZM1.44427 42.1945L5.47627 34.2585L4.58473 33.8055L0.552733 41.7415L1.44427 42.1945ZM4.7305 34.432C6.48486 35.7478 8.49734 36.7745 10.7631 37.5153L11.0739 36.5648C8.90233 35.8548 6.98947 34.8762 5.3305 33.632L4.7305 34.432ZM10.774 37.5187C13.0819 38.2154 15.4346 38.564 17.8305 38.564V37.564C15.5331 37.564 13.2778 37.2299 11.063 36.5613L10.774 37.5187ZM17.8305 38.564C20.4885 38.564 22.6449 38.064 24.2491 37.0098L23.6999 36.1741C22.3174 37.0826 20.3778 37.564 17.8305 37.564V38.564ZM24.2573 37.0044C25.8887 35.8857 26.7145 34.3009 26.7145 32.304H25.7145C25.7145 33.9764 25.047 35.2503 23.6917 36.1796L24.2573 37.0044ZM26.7145 32.304C26.7145 30.3204 25.9466 28.778 24.3929 27.758C22.8759 26.7621 20.664 26.3 17.8305 26.3V27.3C20.5864 27.3 22.5664 27.7552 23.8441 28.594C25.0851 29.4087 25.7145 30.6183 25.7145 32.304H26.7145ZM17.8305 26.3H13.0945V27.3H17.8305V26.3ZM13.5945 26.8V19.952H12.5945V26.8H13.5945ZM13.4692 20.283L22.6852 9.85104L21.9358 9.18896L12.7198 19.621L13.4692 20.283ZM22.3105 9.02H3.2385V10.02H22.3105V9.02ZM3.7385 9.52V1.2H2.7385V9.52H3.7385ZM3.2385 1.7H34.5985V0.699997H3.2385V1.7ZM34.0985 1.2V7.92H35.0985V1.2H34.0985ZM34.2227 7.59016L24.1107 19.1102L24.8623 19.7698L34.9743 8.24984L34.2227 7.59016Z" fill="#B5B26F"/>
</svg>
