<svg width="21" height="47" viewBox="0 0 21 47" fill="none" xmlns="http://www.w3.org/2000/svg">
<path d="M20.2448 1.2V46H9.87675V9.52H0.91675V1.2H20.2448Z" fill="white"/>
<path d="M20.2448 1.2H20.7448V0.699997H20.2448V1.2ZM20.2448 46V46.5H20.7448V46H20.2448ZM9.87675 46H9.37675V46.5H9.87675V46ZM9.87675 9.52H10.3767V9.02H9.87675V9.52ZM0.91675 9.52H0.41675V10.02H0.91675V9.52ZM0.91675 1.2V0.699997H0.41675V1.2H0.91675ZM19.7448 1.2V46H20.7448V1.2H19.7448ZM20.2448 45.5H9.87675V46.5H20.2448V45.5ZM10.3767 46V9.52H9.37675V46H10.3767ZM9.87675 9.02H0.91675V10.02H9.87675V9.02ZM1.41675 9.52V1.2H0.41675V9.52H1.41675ZM0.91675 1.7H20.2448V0.699997H0.91675V1.7Z" fill="#B5B26F"/>
</svg>
