<svg width="38" height="48" viewBox="0 0 38 48" fill="none" xmlns="http://www.w3.org/2000/svg">
<path d="M37.093 38.552V47H3.237V40.28L20.517 23.96C22.3517 22.2107 23.589 20.7173 24.229 19.48C24.869 18.2 25.189 16.9413 25.189 15.704C25.189 13.912 24.5703 12.5467 23.333 11.608C22.1383 10.6267 20.3677 10.136 18.021 10.136C16.0583 10.136 14.2877 10.52 12.709 11.288C11.1303 12.0133 9.80767 13.1227 8.741 14.616L1.189 9.752C2.93833 7.14933 5.349 5.12267 8.421 3.672C11.493 2.17867 15.013 1.432 18.981 1.432C22.309 1.432 25.2103 1.98667 27.685 3.096C30.2023 4.16267 32.1437 5.69867 33.509 7.704C34.917 9.66667 35.621 11.992 35.621 14.68C35.621 17.112 35.109 19.3947 34.085 21.528C33.061 23.6613 31.077 26.0933 28.133 28.824L17.829 38.552H37.093Z" fill="white"/>
<path d="M37.093 38.552H37.593V38.052H37.093V38.552ZM37.093 47V47.5H37.593V47H37.093ZM3.237 47H2.737V47.5H3.237V47ZM3.237 40.28L2.89369 39.9165L2.737 40.0645V40.28H3.237ZM20.517 23.96L20.8603 24.3235L20.862 24.3219L20.517 23.96ZM24.229 19.48L24.6732 19.7097L24.6762 19.7036L24.229 19.48ZM23.333 11.608L23.0156 11.9944L23.0231 12.0005L23.0308 12.0063L23.333 11.608ZM12.709 11.288L12.9178 11.7424L12.9277 11.7376L12.709 11.288ZM8.741 14.616L8.47026 15.0364L8.87089 15.2944L9.14787 14.9066L8.741 14.616ZM1.189 9.752L0.774024 9.47308L0.48959 9.89626L0.918261 10.1724L1.189 9.752ZM8.421 3.672L8.63452 4.12415L8.6396 4.12168L8.421 3.672ZM27.685 3.096L27.4804 3.55235L27.4899 3.55637L27.685 3.096ZM33.509 7.704L33.0956 7.98548L33.1027 7.99545L33.509 7.704ZM34.085 21.528L34.5358 21.7444L34.085 21.528ZM28.133 28.824L27.793 28.4574L27.7898 28.4604L28.133 28.824ZM17.829 38.552L17.4858 38.1884L16.5711 39.052H17.829V38.552ZM36.593 38.552V47H37.593V38.552H36.593ZM37.093 46.5H3.237V47.5H37.093V46.5ZM3.737 47V40.28H2.737V47H3.737ZM3.58031 40.6435L20.8603 24.3235L20.1737 23.5965L2.89369 39.9165L3.58031 40.6435ZM20.862 24.3219C22.7096 22.5603 23.9947 21.0212 24.6731 19.7097L23.7849 19.2503C23.1833 20.4134 21.9938 21.8611 20.172 23.5981L20.862 24.3219ZM24.6762 19.7036C25.3455 18.3651 25.689 17.0303 25.689 15.704H24.689C24.689 16.8524 24.3925 18.0349 23.7818 19.2564L24.6762 19.7036ZM25.689 15.704C25.689 13.7829 25.0174 12.2582 23.6352 11.2097L23.0308 12.0063C24.1233 12.8351 24.689 14.0411 24.689 15.704H25.689ZM23.6504 11.2216C22.3302 10.1372 20.4261 9.636 18.021 9.636V10.636C20.3093 10.636 21.9465 11.1161 23.0156 11.9944L23.6504 11.2216ZM18.021 9.636C15.9916 9.636 14.1448 10.0335 12.4903 10.8384L12.9277 11.7376C14.4306 11.0065 16.1251 10.636 18.021 10.636V9.636ZM12.5003 10.8337C10.8379 11.5974 9.44849 12.7653 8.33413 14.3254L9.14787 14.9066C10.1668 13.48 11.4228 12.4292 12.9178 11.7423L12.5003 10.8337ZM9.01174 14.1956L1.45974 9.33164L0.918261 10.1724L8.47026 15.0364L9.01174 14.1956ZM1.60398 10.0309C3.29883 7.5093 5.63702 5.5396 8.6345 4.12412L8.2075 3.21987C5.06098 4.70573 2.57783 6.78936 0.774024 9.47308L1.60398 10.0309ZM8.6396 4.12168C11.6333 2.66642 15.0765 1.932 18.981 1.932V0.931999C14.9495 0.931999 11.3527 1.69091 8.2024 3.22231L8.6396 4.12168ZM18.981 1.932C22.2541 1.932 25.083 2.47753 27.4805 3.55225L27.8895 2.63974C25.3377 1.4958 22.3639 0.931999 18.981 0.931999V1.932ZM27.4899 3.55637C29.9304 4.59048 31.7911 6.06923 33.0957 7.98539L33.9223 7.4226C32.4963 5.32811 30.4743 3.73485 27.8801 2.63562L27.4899 3.55637ZM33.1027 7.99545C34.443 9.86365 35.121 12.0842 35.121 14.68H36.121C36.121 11.8998 35.391 9.46968 33.9153 7.41254L33.1027 7.99545ZM35.121 14.68C35.121 17.0392 34.6249 19.2477 33.6342 21.3116L34.5358 21.7444C35.5931 19.5416 36.121 17.1848 36.121 14.68H35.121ZM33.6342 21.3116C32.6499 23.3623 30.7185 25.7439 27.793 28.4574L28.473 29.1906C31.4355 26.4428 33.4721 23.9604 34.5358 21.7444L33.6342 21.3116ZM27.7898 28.4604L17.4858 38.1884L18.1722 38.9156L28.4762 29.1876L27.7898 28.4604ZM17.829 39.052H37.093V38.052H17.829V39.052Z" fill="#B5B26F"/>
</svg>
